<?xml version="1.0" encoding="iso-8859-1"?>
<!-- Uploaded to: SVG Repo, www.svgrepo.com, Generator: SVG Repo Mixer Tools -->
<svg fill="#000000" height="800px" width="800px" version="1.1" id="Layer_1" xmlns="http://www.w3.org/2000/svg" xmlns:xlink="http://www.w3.org/1999/xlink" 
	 viewBox="0 0 512.003 512.003" xml:space="preserve">
<g>
	<g>
		<g>
			<path d="M341.335,375.47h-8.337c2.031,77.193,31.147,136.533,68.07,136.533c12.536,0,24.141-6.929,34.133-18.978v-32.222
				C432.309,412.368,391.947,375.47,341.335,375.47z"/>
			<path d="M349.885,273.579v-3.362c-9.822,23.544-15.991,54.084-16.887,88.183h8.337c59.785,0,107.469,43.81,110.916,101.897v3.354
				c9.822-23.535,15.991-54.076,16.887-88.184h-8.337C401.025,375.467,353.341,331.665,349.885,273.579z"/>
			<path d="M460.802,358.403h8.337c-1.869-71.125-26.76-126.967-59.537-135.322V168.23c10.121-5.623,17.067-20.966,17.067-40.226
				c0-19.26-6.946-34.603-17.067-40.226V59.737c0-4.719-3.823-8.533-8.533-8.533c-9.412,0-17.067-7.654-17.067-17.067
				c0-9.412,7.654-17.067,17.067-17.067c9.412,0,17.067,7.654,17.067,17.067c0,12.006,1.843,51.2,25.6,51.2
				c4.71,0,8.533-3.814,8.533-8.533s-3.823-8.533-8.533-8.533c-3.439,0-8.533-14.336-8.533-34.133
				c0-18.825-15.309-34.133-34.133-34.133c-18.824,0-34.133,15.309-34.133,34.133c0,15.872,10.897,29.261,25.6,33.05v20.591
				c-10.12,5.623-17.067,20.966-17.067,40.226c0,19.26,6.946,34.603,17.067,40.226v54.776c-9.276,2.381-17.92,8.585-25.6,17.843
				v32.222C369.828,321.505,410.191,358.403,460.802,358.403z"/>
			<path d="M59.752,273.579v-3.362C49.93,293.76,43.76,324.301,42.864,358.4h8.337c59.785,0,107.469,43.81,110.916,101.897v3.354
				c9.822-23.535,15.991-54.076,16.887-88.184h-8.337C110.892,375.467,63.208,331.665,59.752,273.579z"/>
			<path d="M119.469,223.078v-54.852c10.121-5.623,17.067-20.966,17.067-40.226c0-19.251-6.946-34.594-17.067-40.218V59.733
				c0-4.71-3.823-8.533-8.533-8.533c-9.412,0-17.067-7.654-17.067-17.067c0-9.404,7.654-17.067,17.067-17.067
				c9.412,0,17.067,7.663,17.067,17.067c0,12.015,1.843,51.2,25.6,51.2c4.71,0,8.533-3.814,8.533-8.533
				c0-4.71-3.823-8.533-8.533-8.533c-3.439,0-8.533-14.328-8.533-34.133C145.069,15.309,129.76,0,110.935,0
				S76.802,15.309,76.802,34.133c0,15.881,10.897,29.261,25.6,33.05v20.599C92.282,93.406,85.335,108.749,85.335,128
				c0,19.26,6.946,34.603,17.067,40.226v54.775c-9.276,2.389-17.92,8.585-25.6,17.843v32.222
				c2.893,48.435,43.255,85.333,93.867,85.333h8.337C177.137,287.275,152.245,231.433,119.469,223.078z"/>
			<path d="M51.202,375.47h-8.337c2.031,77.193,31.147,136.533,68.07,136.533c12.535,0,24.141-6.929,34.133-18.978v-32.222
				C142.176,412.368,101.813,375.47,51.202,375.47z"/>
		</g>
	</g>
</g>
</svg>