<?xml version="1.0" encoding="iso-8859-1"?>
<!-- Uploaded to: SVG Repo, www.svgrepo.com, Generator: SVG Repo Mixer Tools -->
<svg fill="#000000" height="800px" width="800px" version="1.1" id="Layer_1" xmlns="http://www.w3.org/2000/svg" xmlns:xlink="http://www.w3.org/1999/xlink" 
	 viewBox="0 0 512 512" xml:space="preserve">
<g>
	<g>
		<path d="M480,267.947l-35.84-35.84l-49.493-49.493l-8.533,11.093c-5.973,6.827-6.827,9.387-6.827,19.627
			c0,17.92,12.8,34.987,30.72,40.96c-0.853,0-11.093,8.533-11.947,13.653c-21.333-10.24-35.84-31.573-35.84-54.613
			c0-13.653,2.56-20.48,10.24-30.72l9.387-11.947l-33.28-33.28l-6.827,5.973c-8.533,6.827-21.333,10.24-39.253,10.24
			c-33.28,0-59.733-26.453-59.733-59.733c0-13.653,2.56-20.48,10.24-30.72l0.853-0.853l10.24-10.24L214.613,2.56
			C212.907,0.853,211.2,0,208.64,0H83.2l2.56,1.707c13.653,9.387,29.013,27.307,29.013,49.493c0,33.28-26.453,59.733-59.733,59.733
			h-25.6v179.2c3.413,0,7.68,0,11.093,0h5.973c33.28,0,59.733,26.453,59.733,59.733S79.787,409.6,46.507,409.6h-5.973
			c-4.267,0-7.68,0-11.093,0v42.667v51.2c0,5.12,3.413,8.533,8.533,8.533s8.533-3.413,8.533-8.533V460.8h17.067v42.667
			c0,5.12,3.413,8.533,8.533,8.533s8.533-3.413,8.533-8.533V460.8h17.067v42.667c0,5.12,3.413,8.533,8.533,8.533
			c5.12,0,8.533-3.413,8.533-8.533V460.8h8.533c0-3.413,0-7.68,0-11.093v-5.973c0-33.28,26.453-59.733,59.733-59.733
			c11.947,0,22.187,5.12,29.867,9.387l4.267,2.56v-15.36l-11.947-5.973c-23.04-8.533-39.253-33.28-39.253-58.88
			c0-25.6,16.213-49.493,38.4-58.027l4.267,4.267v11.093c0,0-25.6,23.893-25.6,42.667c0,18.773,11.947,37.547,28.16,43.52h0.853
			l5.12,2.56v-88.747h2.56l25.6,25.6c9.387,0,22.187,0,23.04,0c23.893,0,42.667-18.773,42.667-42.667
			c0-23.893-18.773-42.667-42.667-42.667S225.707,232.107,225.707,256h-8.533v-30.72c10.24-17.067,29.867-29.013,51.2-29.013
			c33.28,0,59.733,26.453,59.733,59.733c0,33.28-26.453,59.733-59.733,59.733c0,0-2.56,0-5.973,0l48.64,48.64l35.84,35.84
			c1.707,1.707,4.267,2.56,5.973,2.56c2.56,0,4.267-0.853,5.973-2.56c3.413-3.413,3.413-8.533,0-11.947L328.96,358.4l11.947-11.947
			l29.867,29.867c1.707,1.707,4.267,2.56,5.973,2.56s4.267-0.853,5.973-2.56c3.413-3.413,3.413-8.533,0-11.947l-29.013-29.867
			l11.947-11.947l29.867,29.867c1.707,1.707,4.267,2.56,5.973,2.56s4.267-0.853,5.973-2.56c3.413-3.413,3.413-8.533,0-11.947
			L377.6,310.613l11.947-11.947l29.867,29.867c1.707,1.707,4.267,2.56,5.973,2.56c2.56,0,4.267-0.853,5.973-2.56
			c3.413-3.413,3.413-8.533,0-11.947l-29.867-29.867l11.947-11.947l29.867,29.867c1.707,1.707,4.267,2.56,5.973,2.56
			c2.56,0,4.267-0.853,5.973-2.56c3.413-3.413,3.413-8.533,0-11.947l-30.72-30.72l12.8-11.947l30.72,30.72
			c1.707,1.707,4.267,2.56,5.973,2.56c2.56,0,4.267-0.853,5.973-2.56C483.413,276.48,483.413,271.36,480,267.947z M123.307,273.067
			c-33.28,0-59.733-26.453-59.733-59.733c0-33.28,26.453-59.733,59.733-59.733c33.28,0,59.733,26.453,59.733,59.733
			C183.04,246.613,156.587,273.067,123.307,273.067z M200.107,51.2c-23.893,0-42.667,18.773-42.667,42.667
			c0,23.893,18.773,42.667,42.667,42.667V153.6c-33.28,0-59.733-26.453-59.733-59.733c0-33.28,26.453-59.733,59.733-59.733V51.2z"/>
	</g>
</g>
<g>
	<g>
		<path d="M46.507,307.2h-5.973c-4.267,0-7.68,0-11.093,0v85.333c3.413,0,7.68,0,11.093,0h5.973
			c23.893,0,42.667-18.773,42.667-42.667C89.173,325.973,70.4,307.2,46.507,307.2z"/>
	</g>
</g>
<g>
	<g>
		<path d="M75.52,15.36L52.48,0H37.973c-5.12,0-8.533,3.413-8.533,8.533v85.333h25.6c23.893,0,42.667-18.773,42.667-42.667
			C97.707,35.84,86.613,23.04,75.52,15.36z"/>
	</g>
</g>
<g>
	<g>
		<path d="M123.307,170.667c-23.893,0-42.667,18.773-42.667,42.667c0,23.893,18.773,42.667,42.667,42.667
			c23.893,0,42.667-18.773,42.667-42.667C165.973,189.44,147.2,170.667,123.307,170.667z"/>
	</g>
</g>
<g>
	<g>
		<path d="M204.373,407.893c-5.973-2.56-13.653-6.827-21.333-6.827c-23.893,0-42.667,18.773-42.667,42.667
			c-5.12,0-8.533,3.413-8.533,8.533v51.2c0,5.12,3.413,8.533,8.533,8.533s8.533-3.413,8.533-8.533V460.8h17.067v42.667
			c0,5.12,3.413,8.533,8.533,8.533s8.533-3.413,8.533-8.533V460.8h17.067v42.667c0,5.12,3.413,8.533,8.533,8.533
			s8.533-3.413,8.533-8.533v-51.2v-36.693L204.373,407.893z"/>
	</g>
</g>
<g>
	<g>
		<path d="M276.907,64l-10.24,10.24c-5.973,6.827-6.827,9.387-6.827,19.627c0,23.893,18.773,42.667,42.667,42.667
			c13.653,0,23.04-2.56,29.013-6.827l5.973-5.12L276.907,64z"/>
	</g>
</g>
</svg>